<?xml version="1.0" encoding="UTF-8"?>
<svg id="Layer_1" data-name="Layer 1" xmlns="http://www.w3.org/2000/svg" viewBox="0 0 32 32">
  <defs>
    <style>
      .cls-1, .cls-2, .cls-3, .cls-4, .cls-5, .cls-6, .cls-7 {
        stroke-width: 0px;
      }

      .cls-2 {
        fill: #f2f3f3;
      }

      .cls-3 {
        fill: #f9f9f9;
      }

      .cls-4 {
        fill: #dedfdf;
      }

      .cls-5 {
        fill: #c5c8c8;
      }

      .cls-6 {
        fill: #d5d6d7;
      }

      .cls-7 {
        fill: #ebecec;
      }
    </style>
  </defs>
  <rect class="cls-1" width="32" height="32" rx="2" ry="2"/>
  <g>
    <g>
      <polygon class="cls-2" points="30.34 23.25 18.34 10.37 19.05 20.63 30.34 23.25"/>
      <path class="cls-2" d="M1.66,28.27l.93-.03c8.98-1.55,18.03-3.06,27.01-4.61.27-.05.47-.13.74-.18-8.71.93-17.41,1.86-26.12,2.79l-2.57,2.03Z"/>
      <polygon class="cls-7" points="21.34 18.09 18.34 10.37 19.03 20.65 21.34 18.09"/>
      <polygon class="cls-4" points="19.03 20.65 30.34 23.25 21.34 18.09 19.03 20.65"/>
      <polygon class="cls-6" points="20.53 27.38 30.34 23.45 1.9 28.27 20.53 27.38"/>
      <polygon class="cls-5" points="25.61 27.14 30.34 23.45 19.53 27.43 25.61 27.14"/>
    </g>
    <g>
      <polygon class="cls-2" points="16.56 3.73 6.14 23.83 17.77 22.56 16.56 3.73"/>
      <polygon class="cls-2" points="17.6 19.5 16.56 3.73 17.59 19.5 17.6 19.5"/>
      <polygon class="cls-4" points="17.79 22.57 17.6 19.5 17.59 19.5 17.79 22.57"/>
      <polygon class="cls-4" points="14.76 20.57 6.14 23.83 17.79 22.57 14.76 20.57"/>
      <polygon class="cls-3" points="16.56 3.73 14.76 20.57 14.76 20.57 17.79 22.57 16.56 3.73"/>
    </g>
  </g>
</svg>