<?xml version="1.0" encoding="UTF-8"?>
<svg id="Layer_1" data-name="Layer 1" xmlns="http://www.w3.org/2000/svg" viewBox="0 0 1249.13 1005.17">
  <defs>
    <style>
      .cls-1 {
        fill: #f2f3f3;
      }

      .cls-1, .cls-2, .cls-3, .cls-4, .cls-5, .cls-6 {
        stroke-width: 0px;
      }

      .cls-2 {
        fill: #f9f9f9;
      }

      .cls-3 {
        fill: #dedfdf;
      }

      .cls-4 {
        fill: #c5c8c8;
      }

      .cls-5 {
        fill: #d5d6d7;
      }

      .cls-6 {
        fill: #ebecec;
      }
    </style>
  </defs>
  <g>
    <polygon class="cls-1" points="1189.47 789.24 716.64 281.79 744.5 686.13 1189.47 789.24"/>
    <path class="cls-1" d="M59.66,987.1l36.54-1.29c353.8-61,710.15-120.48,1063.95-181.48,10.63-1.83,18.7-5.19,29.32-7.02-342.89,36.62-685.77,73.25-1028.66,109.87l-101.15,79.91Z"/>
    <polygon class="cls-6" points="834.99 585.89 716.64 281.79 743.85 686.85 834.99 585.89"/>
    <polygon class="cls-3" points="743.85 686.85 1189.47 789.24 834.99 585.89 743.85 686.85"/>
    <polygon class="cls-5" points="802.85 952.09 1189.47 797.32 69.08 987.1 802.85 952.09"/>
    <polygon class="cls-4" points="1003.24 942.69 1189.47 797.32 763.75 953.96 1003.24 942.69"/>
  </g>
  <g>
    <polygon class="cls-1" points="646.55 20.33 236.01 812.12 694.27 762.11 646.55 20.33"/>
    <polygon class="cls-1" points="687.53 641.58 646.55 20.33 687.12 641.74 687.53 641.58"/>
    <polygon class="cls-3" points="695 762.59 687.53 641.58 687.12 641.74 695 762.59"/>
    <polygon class="cls-3" points="575.78 683.79 236.01 812.12 695 762.59 575.78 683.79"/>
    <polygon class="cls-2" points="646.55 20.33 575.78 683.79 575.78 683.79 695 762.59 646.55 20.33"/>
  </g>
</svg>